<?xml version="1.0" encoding="utf-8"?>
<svg viewBox="0 0 500 500" xmlns="http://www.w3.org/2000/svg">
  <path d="M 402.802 253.041 C 402.802 373.916 271.577 449.463 166.597 389.025 C 117.877 360.976 87.862 309.139 87.862 253.041 C 87.862 132.164 219.087 56.616 324.067 117.054 C 372.788 145.104 402.802 196.941 402.802 253.041 Z M 51.523 253.041 C 51.523 401.81 213.03 494.792 342.237 420.406 C 402.202 385.885 439.141 322.085 439.141 253.041 C 439.141 104.27 277.634 11.288 148.428 85.673 C 88.462 120.195 51.523 183.995 51.523 253.041 Z M 227.163 150.372 L 227.163 253.041 C 227.163 259.079 230.191 264.742 235.264 268.139 L 307.942 316.453 C 316.27 322.04 327.55 319.775 333.152 311.395 C 338.754 303.015 336.483 291.843 328.08 286.256 L 263.502 243.377 L 263.502 150.372 C 263.502 140.331 255.401 132.253 245.332 132.253 C 235.264 132.253 227.163 140.331 227.163 150.372 Z" style="fill: rgb(255, 255, 255);"/>
</svg>